# xmcd
#
# Track frame offsets: 
#        150
#        10476
#        22320
#        34387
#        44042
#        57001
#        70210
#        81621
#        94092
#        103595
#        113544
#        123966
#        133665
#        144059
#        153548
#        164124
#        175047
#        185525
#        197968
#        209978
#        223033
#        234751
#        246050
#        259203
#        270573
#        282080
#        291639
#        301921
#        315965
#        327000
#
# Disc length: 4510 seconds
#
# Revision: 0
# Processed by: cddbd v1.5.2PL0 Copyright (c) Steve Scherf et al.
# Submitted via: ExactAudioCopy v0.95b4
#
DISCID=c8119c1e
DTITLE=Ella Mae Morse - Jumpin And Jivin
DYEAR=1993
DGENRE=Swing
TTITLE0=have mercy baby
TTITLE1=razzle dazzle
TTITLE2=rock me all night
TTITLE3=money honey
TTITLE4=daddy daddy
TTITLE5=the point of no return
TTITLE6=40 cups of coffee
TTITLE7=teardrops from my eyes
TTITLE8=5-10-15 hours
TTITLE9=how can you leave a man like this
TTITLE10=give a litlte time to your lover
TTITLE11=good night,it's time to go
TTITLE12=mr.memory maker
TTITLE13=put your arms around me honey
TTITLE14=livin' livin' livin'
TTITLE15=jump back honey
TTITLE16=tennessee saturday night
TTITLE17=ain't that a shame
TTITLE18=seventeen
TTITLE19=i'm hog-tied over you
TTITLE20=the house of blue lights
TTITLE21=get off it and go
TTITLE22=oakie boogie
TTITLE23=pig foot pete
TTITLE24=down the road apiece
TTITLE25=rock'n'roll wedding
TTITLE26=what good'l lt to me
TTITLE27=false hearted girl
TTITLE28=get on board little children
TTITLE29=smack dab in the middle
EXTD=
EXTT0=
EXTT1=
EXTT2=
EXTT3=
EXTT4=
EXTT5=
EXTT6=
EXTT7=
EXTT8=
EXTT9=
EXTT10=
EXTT11=
EXTT12=
EXTT13=
EXTT14=
EXTT15=
EXTT16=
EXTT17=
EXTT18=
EXTT19=
EXTT20=
EXTT21=
EXTT22=
EXTT23=
EXTT24=
EXTT25=
EXTT26=
EXTT27=
EXTT28=
EXTT29=
PLAYORDER=
